<?xml version="1.0"?>
<svg xmlns:rdf="http://www.w3.org/1999/02/22-rdf-syntax-ns#" xmlns="http://www.w3.org/2000/svg" xmlns:cc="http://creativecommons.org/ns#" xmlns:xlink="http://www.w3.org/1999/xlink" xmlns:dc="http://purl.org/dc/elements/1.1/" xmlns:svg="http://www.w3.org/2000/svg" id="svg6267" viewBox="0 0 90.281 107.32" version="1.0">
  <defs id="defs6269">
    <radialGradient id="radialGradient31354" gradientUnits="userSpaceOnUse" cy="-641.73" cx="438.02" gradientTransform="matrix(1.0773 .0000010551 -3.5798e-7 .36281 -33.854 -269.77)" r="263.41">
      <stop id="stop27737" stop-color="#09a0ff" offset="0"/>
      <stop id="stop27739" stop-color="#1254f5" stop-opacity="0" offset="1"/>
    </radialGradient>
  </defs>
  <g id="layer1" transform="translate(-297.72 -458.7)">
    <g id="g31338" transform="matrix(.46971 0 0 .46971 179.72 396.94)">
      <g id="g31340" transform="matrix(.36278 0 0 .36278 181.19 452.91)">
        <path id="path31342" d="m644.16-535.5l-368.63 9.69s1.81 12.35 8.44 26.37c16.21 8.5 24.57 31.49 42 29.91 21.34-1.94 29.11-23.31 64.03-25.25s34.93 21.34 64.03 23.28c29.11 1.94 42.67-27.16 79.53-27.16 31.83 0 41.98 20.25 62.88 25.78l47.72-62.62z" fill-rule="evenodd" stroke="#000" stroke-width="3.3" fill="#d89055"/>
        <path id="path31344" fill-rule="evenodd" fill="url(#radialGradient31354)" d="m195.97-471.55s50.44-31.04 75.67-31.04c25.22 0 32.98 34.92 54.33 32.98 21.34-1.94 29.1-23.28 64.02-25.22 34.93-1.94 34.93 21.34 64.03 23.28 29.11 1.94 42.69-27.16 79.55-27.16 36.87 0 44.63 27.16 73.74 27.16 29.1 0 15.52-25.22 64.02-25.22 48.51 0 50.45 3.88 50.45 3.88l-108.65 236.71-395.82-11.64-21.34-203.73z"/>
        <path id="path31346" stroke="#000" stroke-width="4" fill="none" d="m195-471.55s50.44-31.04 75.67-31.04c25.22 0 32.98 34.92 54.33 32.98 21.34-1.94 29.1-23.28 64.02-25.22 34.93-1.94 34.93 21.34 64.03 23.28 29.11 1.94 42.69-27.16 79.55-27.16 36.87 0 44.63 27.16 73.74 27.16 29.1 0 15.52-25.22 64.02-25.22 48.51 0 50.45 3.88 50.45 3.88"/>
      </g>
      <path id="path31348" stroke="#000" stroke-width="1px" fill="none" d="m424.92 186.27z"/>
      <path id="path31350" d="m350.31 255.6l-0.75-122.85s-0.74 73.45-14.98 93.48-49.45 30.04-49.45 30.04l65.18-0.67z" fill-rule="evenodd" stroke="#000" stroke-width="2.5" fill="#fff"/>
      <path id="path31352" d="m355.07 139.28s38.81 74.27 41.72 88.62c2.91 14.36 1.94 26.22 1.94 26.22l-42.69-0.63-0.97-114.21z" fill-rule="evenodd" stroke="#000" stroke-width="2.5" fill="#fff"/>
    </g>
  </g>
  <metadata>
    <rdf:RDF>
      <cc:Work>
        <dc:format>image/svg+xml</dc:format>
        <dc:type rdf:resource="http://purl.org/dc/dcmitype/StillImage"/>
        <cc:license rdf:resource="http://creativecommons.org/licenses/publicdomain/"/>
        <dc:publisher>
          <cc:Agent rdf:about="http://openclipart.org/">
            <dc:title>Openclipart</dc:title>
          </cc:Agent>
        </dc:publisher>
        <dc:title>boat</dc:title>
        <dc:date>2008-01-03T20:30:41</dc:date>
        <dc:description>boat, boat, clip art, clipart, icon, icon, image, media, png, public domain, sailboat, sailboat, sign, sign, svg, </dc:description>
        <dc:source>http://openclipart.org/detail/10633/boat-by-yves_guillou-10633</dc:source>
        <dc:creator>
          <cc:Agent>
            <dc:title>yves_guillou</dc:title>
          </cc:Agent>
        </dc:creator>
        <dc:subject>
          <rdf:Bag>
            <rdf:li>boat</rdf:li>
            <rdf:li>clip art</rdf:li>
            <rdf:li>clipart</rdf:li>
            <rdf:li>icon</rdf:li>
            <rdf:li>image</rdf:li>
            <rdf:li>media</rdf:li>
            <rdf:li>png</rdf:li>
            <rdf:li>public domain</rdf:li>
            <rdf:li>sailboat</rdf:li>
            <rdf:li>sign</rdf:li>
            <rdf:li>svg</rdf:li>
          </rdf:Bag>
        </dc:subject>
      </cc:Work>
      <cc:License rdf:about="http://creativecommons.org/licenses/publicdomain/">
        <cc:permits rdf:resource="http://creativecommons.org/ns#Reproduction"/>
        <cc:permits rdf:resource="http://creativecommons.org/ns#Distribution"/>
        <cc:permits rdf:resource="http://creativecommons.org/ns#DerivativeWorks"/>
      </cc:License>
    </rdf:RDF>
  </metadata>
</svg>
